<svg version="1.1" id="Layer_1" xmlns="http://www.w3.org/2000/svg" xmlns:xlink="http://www.w3.org/1999/xlink" x="0px" y="0px"
	 width="100%" viewBox="0 0 71 131" enable-background="new 0 0 71 131" xml:space="preserve">
<path fill="#152735" opacity="1.000000" stroke="none" 
	d="
M27.000008,132.000000 
	C18.000011,132.000000 9.500011,132.000000 1.000009,132.000000 
	C1.000006,88.333336 1.000006,44.666676 1.000003,1.000009 
	C24.666662,1.000006 48.333324,1.000006 71.999985,1.000003 
	C71.999992,44.666660 71.999992,88.333321 72.000000,132.000000 
	C57.166668,132.000000 42.333336,132.000000 27.000008,132.000000 
M44.896149,38.488972 
	C46.300549,41.595181 48.059357,44.595680 49.024925,47.832783 
	C50.416679,52.498703 53.683033,55.288284 57.979748,54.667675 
	C62.579437,54.003307 65.434425,50.264320 64.753525,45.272903 
	C63.525299,36.269215 59.781898,28.242874 51.500107,24.167166 
	C45.403755,21.166973 41.331562,18.442606 41.936279,10.790483 
	C42.262154,6.666824 38.611961,4.254217 34.511528,4.326357 
	C30.405941,4.398587 27.809689,6.979064 26.995110,11.051683 
	C26.704363,12.505313 26.582361,14.050887 26.725428,15.521206 
	C27.041492,18.769489 26.143661,20.424238 22.603130,21.508076 
	C19.105400,22.578812 15.550419,24.726881 12.986551,27.347441 
	C5.210676,35.295250 1.942645,44.854961 6.220763,55.627625 
	C10.526635,66.470169 18.948734,72.340240 30.606268,73.410706 
	C33.256218,73.654030 35.953255,73.520233 38.573784,73.919716 
	C43.777958,74.713074 48.019283,79.095230 48.825317,84.173271 
	C49.394463,87.758965 46.318073,92.616241 42.296551,94.481445 
	C32.839375,98.867752 22.990194,94.417511 19.941837,84.380722 
	C18.519848,79.698784 14.879542,77.279503 10.593426,78.167923 
	C6.430455,79.030823 3.785393,82.924751 4.529546,87.642845 
	C5.841674,95.962029 9.659666,103.407784 17.294641,106.814758 
	C24.320004,109.949715 27.929005,113.454498 27.164997,121.509895 
	C26.806435,125.290443 30.186081,127.682243 34.159676,127.903915 
	C38.137909,128.125839 40.984287,126.128838 41.955315,122.304642 
	C42.598431,119.771866 42.664921,117.024994 42.564392,114.390182 
	C42.464577,111.774040 43.443188,110.714218 45.910309,109.808472 
	C58.421307,105.215309 66.347755,93.725380 64.723106,83.004639 
	C62.560162,68.731880 52.190113,58.953991 38.007885,57.794998 
	C35.024860,57.551216 32.007080,57.465881 29.074751,56.928596 
	C24.160484,56.028156 20.202974,51.322685 20.234528,46.822697 
	C20.269369,41.853642 24.074503,36.975811 28.932652,35.923405 
	C34.279964,34.765038 39.527443,34.736073 44.896149,38.488972 
z"/>
<path fill="#FBFCFC" opacity="1.000000" stroke="none" 
	d="
M44.591282,38.264114 
	C39.527443,34.736073 34.279964,34.765038 28.932652,35.923405 
	C24.074503,36.975811 20.269369,41.853642 20.234528,46.822697 
	C20.202974,51.322685 24.160484,56.028156 29.074751,56.928596 
	C32.007080,57.465881 35.024860,57.551216 38.007885,57.794998 
	C52.190113,58.953991 62.560162,68.731880 64.723106,83.004639 
	C66.347755,93.725380 58.421307,105.215309 45.910309,109.808472 
	C43.443188,110.714218 42.464577,111.774040 42.564392,114.390182 
	C42.664921,117.024994 42.598431,119.771866 41.955315,122.304642 
	C40.984287,126.128838 38.137909,128.125839 34.159676,127.903915 
	C30.186081,127.682243 26.806435,125.290443 27.164997,121.509895 
	C27.929005,113.454498 24.320004,109.949715 17.294641,106.814758 
	C9.659666,103.407784 5.841674,95.962029 4.529546,87.642845 
	C3.785393,82.924751 6.430455,79.030823 10.593426,78.167923 
	C14.879542,77.279503 18.519848,79.698784 19.941837,84.380722 
	C22.990194,94.417511 32.839375,98.867752 42.296551,94.481445 
	C46.318073,92.616241 49.394463,87.758965 48.825317,84.173271 
	C48.019283,79.095230 43.777958,74.713074 38.573784,73.919716 
	C35.953255,73.520233 33.256218,73.654030 30.606268,73.410706 
	C18.948734,72.340240 10.526635,66.470169 6.220763,55.627625 
	C1.942645,44.854961 5.210676,35.295250 12.986551,27.347441 
	C15.550419,24.726881 19.105400,22.578812 22.603130,21.508076 
	C26.143661,20.424238 27.041492,18.769489 26.725428,15.521206 
	C26.582361,14.050887 26.704363,12.505313 26.995110,11.051683 
	C27.809689,6.979064 30.405941,4.398587 34.511528,4.326357 
	C38.611961,4.254217 42.262154,6.666824 41.936279,10.790483 
	C41.331562,18.442606 45.403755,21.166973 51.500107,24.167166 
	C59.781898,28.242874 63.525299,36.269215 64.753525,45.272903 
	C65.434425,50.264320 62.579437,54.003307 57.979748,54.667675 
	C53.683033,55.288284 50.416679,52.498703 49.024925,47.832783 
	C48.059357,44.595680 46.300549,41.595181 44.591282,38.264114 
z"/>
</svg>