<svg version="1.1" id="Layer_1" xmlns="http://www.w3.org/2000/svg" xmlns:xlink="http://www.w3.org/1999/xlink" x="0px" y="0px"
	 width="100%" viewBox="0 0 165 162" enable-background="new 0 0 165 162" xml:space="preserve">
<path fill="#132532" opacity="1.000000" stroke="none" 
	d="
M107.000000,163.000000 
	C71.333336,163.000000 36.166676,163.000000 1.000010,163.000000 
	C1.000006,109.000008 1.000006,55.000023 1.000003,1.000024 
	C55.999985,1.000016 110.999969,1.000016 165.999969,1.000008 
	C165.999969,54.999973 165.999969,108.999947 165.999985,162.999969 
	C146.500000,163.000000 127.000000,163.000000 107.000000,163.000000 
M90.852043,147.687286 
	C103.433372,149.792465 115.948395,152.809250 128.615829,153.730698 
	C139.898041,154.551407 149.007507,148.746002 155.585831,139.390579 
	C157.610931,136.510605 157.502075,134.066650 154.874283,131.468597 
	C142.799698,119.530739 130.773483,107.542282 118.868317,95.435890 
	C115.783577,92.299004 113.087326,92.415604 109.706718,94.819939 
	C104.074532,98.825661 100.540375,104.244972 97.863792,110.483643 
	C95.195259,116.703529 91.745667,117.525108 86.111763,113.911743 
	C71.325584,104.428467 59.115234,92.419983 49.697689,77.540489 
	C45.494125,70.898964 46.118038,68.098053 53.320786,64.925659 
	C59.350430,62.269962 64.617195,58.794609 68.463295,53.217083 
	C70.883202,49.707806 70.738609,47.057915 67.699142,44.067139 
	C55.713398,32.273418 43.813335,20.391899 31.960112,8.464809 
	C29.280769,5.768769 26.799969,5.431652 23.625410,7.647853 
	C13.852016,14.470790 8.954533,23.910643 9.107968,35.656151 
	C9.770755,86.392754 42.338264,131.156143 90.852043,147.687286 
z"/>
<path fill="#FDFDFD" opacity="1.000000" stroke="none" 
	d="
M90.492569,147.519806 
	C42.338264,131.156143 9.770755,86.392754 9.107968,35.656151 
	C8.954533,23.910643 13.852016,14.470790 23.625410,7.647853 
	C26.799969,5.431652 29.280769,5.768769 31.960112,8.464809 
	C43.813335,20.391899 55.713398,32.273418 67.699142,44.067139 
	C70.738609,47.057915 70.883202,49.707806 68.463295,53.217083 
	C64.617195,58.794609 59.350430,62.269962 53.320786,64.925659 
	C46.118038,68.098053 45.494125,70.898964 49.697689,77.540489 
	C59.115234,92.419983 71.325584,104.428467 86.111763,113.911743 
	C91.745667,117.525108 95.195259,116.703529 97.863792,110.483643 
	C100.540375,104.244972 104.074532,98.825661 109.706718,94.819939 
	C113.087326,92.415604 115.783577,92.299004 118.868317,95.435890 
	C130.773483,107.542282 142.799698,119.530739 154.874283,131.468597 
	C157.502075,134.066650 157.610931,136.510605 155.585831,139.390579 
	C149.007507,148.746002 139.898041,154.551407 128.615829,153.730698 
	C115.948395,152.809250 103.433372,149.792465 90.492569,147.519806 
z"/>
</svg>