<svg version="1.1" id="Layer_1" xmlns="http://www.w3.org/2000/svg" xmlns:xlink="http://www.w3.org/1999/xlink" x="0px" y="0px"
	 width="100%" viewBox="0 0 132 126" enable-background="new 0 0 132 126" xml:space="preserve">
<path fill="#152734" opacity="1.000000" stroke="none" 
	d="
M82.000000,127.000000 
	C54.666668,127.000000 27.833334,127.000000 1.000000,127.000000 
	C1.000000,85.000000 1.000000,43.000000 1.000000,1.000000 
	C45.000000,1.000000 89.000000,1.000000 133.000000,1.000000 
	C133.000000,43.000000 133.000000,85.000000 133.000000,127.000000 
	C116.166664,127.000000 99.333336,127.000000 82.000000,127.000000 
M88.495918,104.004082 
	C93.209579,108.716316 97.900093,113.451996 102.642670,118.134949 
	C108.770126,124.185371 116.812416,124.691269 122.167000,119.416191 
	C127.849358,113.818237 127.586372,105.826088 121.360931,99.537277 
	C111.279930,89.353638 101.114960,79.253151 91.001785,69.101273 
	C89.996758,68.092400 89.104813,66.970871 87.876968,65.580750 
	C91.404129,62.203754 94.838394,59.261993 97.839867,55.930332 
	C100.159836,53.355148 102.430511,52.566830 106.004318,52.913422 
	C120.484398,54.317684 132.020142,42.744633 130.273560,28.896166 
	C130.062225,27.220394 129.092041,25.640331 128.473557,24.015907 
	C126.823128,24.917982 125.079941,25.688307 123.551804,26.764095 
	C122.343567,27.614679 121.403732,28.844793 120.337433,29.899006 
	C111.654160,38.483841 113.948090,38.727150 104.590820,29.400690 
	C102.567398,27.383930 102.775848,25.805779 104.710686,23.946066 
	C107.833244,20.944746 110.940277,17.914190 113.842354,14.704733 
	C114.686378,13.771308 115.338234,12.068864 115.087090,10.939289 
	C114.904579,10.118378 113.152283,9.284050 111.996124,9.096933 
	C96.985085,6.667503 84.382416,19.387262 86.651886,34.457436 
	C86.873444,35.928665 86.741127,37.992973 85.869034,38.995773 
	C82.068253,43.366184 77.933205,47.445892 73.813644,51.741615 
	C69.613174,47.419319 65.913246,43.612080 61.793495,39.372852 
	C65.328148,36.852379 62.796543,34.858513 60.743118,32.766724 
	C59.109055,31.102131 57.594276,29.301884 55.836697,27.781292 
	C52.936596,25.272226 52.786755,23.058470 55.738113,20.388798 
	C59.069073,17.375750 62.176807,14.107532 65.278038,10.851618 
	C67.658768,8.352139 66.873192,6.642892 63.626740,6.117481 
	C60.672112,5.639299 57.650162,5.569934 54.700825,5.068057 
	C51.293324,4.488217 48.818565,5.440810 46.346188,8.014368 
	C38.498837,16.182858 30.338570,24.050068 22.342655,32.076965 
	C20.270420,34.157230 18.356913,36.395611 16.085262,38.872349 
	C10.848522,37.304348 6.739987,39.606094 3.901407,44.087666 
	C13.695411,53.881981 23.314253,63.501129 33.064407,73.251595 
	C37.194893,70.334641 40.136658,66.480400 38.186234,60.658871 
	C39.961739,59.975475 41.560719,59.360027 41.837864,59.253353 
	C46.476212,63.325710 50.541534,66.894958 55.053860,70.856667 
	C53.143253,72.533577 51.297424,73.781677 49.932484,75.428391 
	C47.015129,78.947968 44.014561,80.423698 38.949581,79.877838 
	C26.064720,78.489182 15.318576,88.843842 15.369742,101.868416 
	C15.378769,104.166161 16.712912,106.458702 17.435116,108.753647 
	C19.320801,107.651962 21.274031,106.648232 23.066893,105.411934 
	C24.145962,104.667839 24.974976,103.561272 25.916943,102.618187 
	C33.948685,94.576981 34.611340,94.545715 41.480179,103.613754 
	C42.275166,104.663269 42.149113,107.465202 41.295017,108.514214 
	C38.573368,111.856949 35.220692,114.677383 32.301655,117.873024 
	C31.405998,118.853561 30.314726,120.911232 30.733232,121.561180 
	C31.483074,122.725693 33.246208,123.695976 34.696182,123.880547 
	C49.216942,125.728859 61.297958,113.163429 59.339447,98.539719 
	C59.142467,97.068924 59.370186,95.110428 60.219570,94.010582 
	C62.833439,90.625961 65.844856,87.548363 68.617424,84.445862 
	C69.803474,85.414551 70.081665,85.604652 70.316055,85.838631 
	C76.212112,91.724350 82.103539,97.614685 88.495918,104.004082 
z"/>
<path fill="#FDFDFD" opacity="1.000000" stroke="none" 
	d="
M88.245850,103.754150 
	C82.103539,97.614685 76.212112,91.724350 70.316055,85.838631 
	C70.081665,85.604652 69.803474,85.414551 68.617424,84.445862 
	C65.844856,87.548363 62.833439,90.625961 60.219570,94.010582 
	C59.370186,95.110428 59.142467,97.068924 59.339447,98.539719 
	C61.297958,113.163429 49.216942,125.728859 34.696182,123.880547 
	C33.246208,123.695976 31.483074,122.725693 30.733232,121.561180 
	C30.314726,120.911232 31.405998,118.853561 32.301655,117.873024 
	C35.220692,114.677383 38.573368,111.856949 41.295017,108.514214 
	C42.149113,107.465202 42.275166,104.663269 41.480179,103.613754 
	C34.611340,94.545715 33.948685,94.576981 25.916943,102.618187 
	C24.974976,103.561272 24.145962,104.667839 23.066893,105.411934 
	C21.274031,106.648232 19.320801,107.651962 17.435116,108.753647 
	C16.712912,106.458702 15.378769,104.166161 15.369742,101.868416 
	C15.318576,88.843842 26.064720,78.489182 38.949581,79.877838 
	C44.014561,80.423698 47.015129,78.947968 49.932484,75.428391 
	C51.297424,73.781677 53.143253,72.533577 55.053860,70.856667 
	C50.541534,66.894958 46.476212,63.325710 41.837864,59.253353 
	C41.560719,59.360027 39.961739,59.975475 38.186234,60.658871 
	C40.136658,66.480400 37.194893,70.334641 33.064407,73.251595 
	C23.314253,63.501129 13.695411,53.881981 3.901407,44.087666 
	C6.739987,39.606094 10.848522,37.304348 16.085262,38.872349 
	C18.356913,36.395611 20.270420,34.157230 22.342655,32.076965 
	C30.338570,24.050068 38.498837,16.182858 46.346188,8.014368 
	C48.818565,5.440810 51.293324,4.488217 54.700825,5.068057 
	C57.650162,5.569934 60.672112,5.639299 63.626740,6.117481 
	C66.873192,6.642892 67.658768,8.352139 65.278038,10.851618 
	C62.176807,14.107532 59.069073,17.375750 55.738113,20.388798 
	C52.786755,23.058470 52.936596,25.272226 55.836697,27.781292 
	C57.594276,29.301884 59.109055,31.102131 60.743118,32.766724 
	C62.796543,34.858513 65.328148,36.852379 61.793495,39.372852 
	C65.913246,43.612080 69.613174,47.419319 73.813644,51.741615 
	C77.933205,47.445892 82.068253,43.366184 85.869034,38.995773 
	C86.741127,37.992973 86.873444,35.928665 86.651886,34.457436 
	C84.382416,19.387262 96.985085,6.667503 111.996124,9.096933 
	C113.152283,9.284050 114.904579,10.118378 115.087090,10.939289 
	C115.338234,12.068864 114.686378,13.771308 113.842354,14.704733 
	C110.940277,17.914190 107.833244,20.944746 104.710686,23.946066 
	C102.775848,25.805779 102.567398,27.383930 104.590820,29.400690 
	C113.948090,38.727150 111.654160,38.483841 120.337433,29.899006 
	C121.403732,28.844793 122.343567,27.614679 123.551804,26.764095 
	C125.079941,25.688307 126.823128,24.917982 128.473557,24.015907 
	C129.092041,25.640331 130.062225,27.220394 130.273560,28.896166 
	C132.020142,42.744633 120.484398,54.317684 106.004318,52.913422 
	C102.430511,52.566830 100.159836,53.355148 97.839867,55.930332 
	C94.838394,59.261993 91.404129,62.203754 87.876968,65.580750 
	C89.104813,66.970871 89.996758,68.092400 91.001785,69.101273 
	C101.114960,79.253151 111.279930,89.353638 121.360931,99.537277 
	C127.586372,105.826088 127.849358,113.818237 122.167000,119.416191 
	C116.812416,124.691269 108.770126,124.185371 102.642670,118.134949 
	C97.900093,113.451996 93.209579,108.716316 88.245850,103.754150 
z"/>
</svg>