<svg version="1.1" id="Layer_1" xmlns="http://www.w3.org/2000/svg" xmlns:xlink="http://www.w3.org/1999/xlink" x="0px" y="0px"
	 width="100%" viewBox="0 0 110 141">

<path fill="#FCFCFC" opacity="1.000000" stroke="none" 
	d="
M91.849625,35.998055 
	C91.849625,29.547791 91.849625,23.596754 91.849625,17.411072 
	C87.752541,17.411072 84.148964,17.411072 80.134926,17.411072 
	C80.707687,18.611086 81.089134,19.855062 81.812332,20.850826 
	C85.551208,25.998827 86.546074,31.133099 83.255997,37.097088 
	C82.360680,38.720055 83.667480,41.580032 84.021332,43.863342 
	C84.341675,45.930489 85.741524,48.579872 84.931931,49.942932 
	C81.413696,55.866295 83.072861,64.254715 75.994476,68.471390 
	C74.669403,69.260757 73.900612,70.983932 72.628922,72.586411 
	C84.662262,77.627396 93.959396,85.477394 99.755478,97.127747 
	C105.420998,108.515656 104.443565,120.693275 104.330048,133.318146 
	C72.078926,133.318146 40.101910,133.318146 8.197785,133.318146 
	C5.093567,105.472099 12.845726,83.605904 41.106098,71.879829 
	C38.650517,69.570198 36.687004,67.756134 34.764339,65.899773 
	C33.931625,65.095772 32.791798,64.333229 32.462307,63.331261 
	C30.797768,58.269493 29.341953,53.138618 27.853937,48.020065 
	C27.722513,47.567989 27.686743,46.861134 27.943466,46.557182 
	C31.896677,41.876713 30.210447,37.391857 28.312090,32.375748 
	C27.431902,30.049986 28.853962,26.649090 29.767313,23.914276 
	C30.471130,21.806860 32.010036,19.978338 33.693676,17.162834 
	C29.619671,17.162834 26.325752,17.546549 23.185997,17.016708 
	C21.347830,16.706514 19.755529,14.939363 18.052624,13.827629 
	C19.739563,12.608008 21.381216,10.414219 23.121092,10.333337 
	C31.764051,9.931544 40.432915,10.049214 49.092617,10.054076 
	C62.414059,10.061555 75.736641,10.240565 89.056236,10.103508 
	C93.611664,10.056633 95.302597,11.843542 95.219818,16.322809 
	C95.041367,25.979342 95.012825,35.645184 95.248802,45.299248 
	C95.330139,48.626587 97.462822,52.183044 96.761032,55.192360 
	C95.281509,61.536736 99.526329,66.598061 99.483917,72.987068 
	C95.631210,72.987068 91.815582,72.987068 87.185753,72.987068 
	C90.658485,60.971775 92.406410,48.856831 91.849625,35.998055 
z"/>
</svg>